<?xml version="1.0" encoding="UTF-8" standalone="no"?><!DOCTYPE svg PUBLIC "-//W3C//DTD SVG 1.1//EN" "http://www.w3.org/Graphics/SVG/1.1/DTD/svg11.dtd"><svg width="100%" height="100%" viewBox="0 0 370 370" version="1.1" xmlns="http://www.w3.org/2000/svg" xmlns:xlink="http://www.w3.org/1999/xlink" xml:space="preserve" xmlns:serif="http://www.serif.com/" style="fill-rule:evenodd;clip-rule:evenodd;stroke-linejoin:round;stroke-miterlimit:2;"><rect id="Artboard1" x="0" y="0" width="369.094" height="369.094" style="fill:none;"/><g id="Artboard11" serif:id="Artboard1"><g><path d="M369.094,73.819c0,-40.742 -33.077,-73.819 -73.818,-73.819l-221.457,0c-40.742,0 -73.819,33.077 -73.819,73.819l-0,221.457c-0,40.741 33.077,73.818 73.819,73.818l221.457,0c40.741,0 73.818,-33.077 73.818,-73.818l0,-221.457Z" style="fill:#767968;"/><path d="M148.59,183.459l0,136.016c0,1.92 1.555,3.483 3.49,3.483l49.69,-0c1.928,-0 3.49,-1.563 3.49,-3.483l-0,-136.016l36.03,0c1.81,0 3.322,-1.387 3.475,-3.197l3.461,-40.98c0.175,-2.03 -1.431,-3.782 -3.468,-3.782l-39.498,-0l-0,-29.072c-0,-6.819 5.527,-12.339 12.338,-12.339l27.766,0c1.934,0 3.482,-1.562 3.482,-3.49l0,-40.98c0,-1.927 -1.548,-3.482 -3.482,-3.482l-46.923,-0c-27.532,-0 -49.851,22.319 -49.851,49.858l0,39.505l-24.852,-0c-1.927,-0 -3.49,1.562 -3.49,3.49l0,40.98c0,1.927 1.563,3.489 3.49,3.489l24.852,0Z" style="fill:#fff;"/></g></g></svg>