<?xml version="1.0" encoding="UTF-8" standalone="no"?>
<!DOCTYPE svg PUBLIC "-//W3C//DTD SVG 1.1//EN" "http://www.w3.org/Graphics/SVG/1.1/DTD/svg11.dtd">
<svg width="100%" height="100%" viewBox="0 0 67 72" version="1.1" xmlns="http://www.w3.org/2000/svg" xmlns:xlink="http://www.w3.org/1999/xlink" xml:space="preserve" xmlns:serif="http://www.serif.com/" style="fill-rule:evenodd;clip-rule:evenodd;stroke-linejoin:round;stroke-miterlimit:2;">
    <g id="path1" transform="matrix(0.270931,0,0,0.270931,-5068.11,-131.128)">
        <path d="M18842.4,746.418C18838.6,745.015 18848.2,730.623 18859.6,720.588C18871.4,710.16 18879.2,705.21 18903.7,692.505C18931,678.371 18935.7,673.786 18940.9,655.754C18942.8,649.15 18944.8,637.628 18943.1,642.794C18942.4,645.087 18938.6,652.576 18936.7,655.414C18929.8,666.041 18924.7,669.882 18904,680.019C18868.8,697.279 18851.6,709.564 18842.1,724.244C18841,725.861 18839.9,727.525 18839.7,727.94C18839.4,728.356 18840,726.946 18840.9,724.806C18853.1,697.997 18862.9,689.721 18908.2,667.983C18921.1,661.779 18926.3,657.507 18934.2,646.608C18935.3,645.052 18935,645.293 18931.9,648.165C18924.7,654.971 18916.8,659.568 18900.1,666.651C18870,679.504 18856.5,689.192 18845.2,705.973C18839.8,714.181 18833.4,731.755 18833.4,738.697C18833.4,741.215 18832.7,739.001 18832.4,735.798C18829.9,699.871 18847.6,679.201 18898.5,658.897C18919,650.695 18924.8,647.389 18932.5,639.39C18937.5,634.22 18938.8,632.115 18934.5,636.181C18927.4,642.965 18921,646.245 18899.5,654.135C18876,662.742 18858.3,671.403 18847.3,679.648C18843.3,682.622 18843.8,681.809 18848.7,677.055C18858.1,667.928 18868.3,661.636 18884.6,654.865C18890.2,652.538 18893.8,651.162 18911.4,644.687C18930,637.84 18937.2,632.427 18941.3,622.077C18949.7,601.299 18929.1,557.493 18901.1,536.858C18888.9,527.798 18883.3,524.717 18866.3,517.465C18853.3,511.927 18853.3,511.941 18858.5,511.925C18875.1,511.871 18900.2,525.315 18918.6,544.11C18981.7,608.68 18951.8,717.015 18863.8,742.556C18854,745.422 18844.4,747.15 18842.4,746.418ZM18868.6,733.724C18889.8,725.603 18907.2,712.517 18923.9,692.299C18924.2,691.872 18923.4,692.265 18922,693.174C18918.7,695.417 18911.3,699.535 18899.5,705.652C18877.4,717.16 18868.2,724.013 18858.8,735.81C18857.4,737.671 18859.6,737.198 18868.6,733.724Z" style="fill:rgb(118,120,103);fill-rule:nonzero;"/>
    </g>
    <g id="path11" serif:id="path1" transform="matrix(0.270931,0,0,0.270931,-5068.11,-131.128)">
        <path d="M18807.4,745.651C18716.5,728.398 18675.6,623.462 18732.3,552.853C18750.4,530.249 18781.1,511.842 18800.4,511.931C18805.7,511.955 18806.3,511.594 18786.1,520.092C18753.1,533.999 18728.1,561.154 18718.2,593.794C18710.2,620.267 18717.5,633.518 18745.8,643.899C18765.2,651.003 18769.2,652.525 18774.5,654.791C18790.5,661.677 18800.4,667.882 18810,677.059C18815.1,682.014 18815.1,682.231 18809.6,678.617C18802.3,673.739 18798.6,671.58 18791.4,667.873C18779.9,661.878 18772.1,658.646 18750.7,650.875C18738.5,646.432 18730.3,641.938 18724.4,636.45C18720.5,632.774 18722.2,635.341 18726.7,639.891C18733.7,646.886 18739.6,650.295 18755.6,656.638C18804.3,675.919 18823.8,694.205 18826.1,722.964C18826.6,728.572 18826.1,741.127 18825.5,738.726C18821.4,721.291 18819.1,715.141 18813.5,706.27C18802.9,689.689 18787.9,678.972 18756.6,665.626C18740.1,658.584 18733.5,654.669 18726.2,647.665C18723.1,644.766 18723.1,644.766 18725.7,648.246C18729.5,653.49 18732.7,656.914 18736.7,659.907C18740.2,662.578 18742,663.519 18766.7,675.606C18794,688.988 18806.1,700.593 18817.2,723.944C18819.6,728.854 18819.6,729.522 18817.2,725.585C18808.4,710.709 18791.3,698.268 18754.2,679.644C18729.7,667.353 18724,662.252 18716.5,645.585C18714.3,640.72 18714.3,640.865 18715.9,648.378C18720.9,671.169 18726.1,677.444 18750.5,690.008C18776.8,703.57 18786.2,709.433 18797.7,719.282C18809.3,729.279 18819.2,743.321 18816.5,746.014C18815.8,746.705 18812.2,746.561 18807.4,745.651L18807.4,745.651ZM18798.1,733.934C18788,721.943 18779.4,715.953 18750.7,701.07C18744.5,697.855 18738.4,694.516 18737.1,693.651C18734.7,692.079 18734.7,692.079 18736.4,694.216C18752.2,713.252 18772.4,727.54 18794.9,735.469C18801.6,737.807 18801.4,737.886 18798.1,733.934Z" style="fill:rgb(118,120,103);fill-rule:nonzero;"/>
    </g>
    <g id="path12" serif:id="path1" transform="matrix(0.270931,0,0,0.270931,-5068.11,-131.128)">
        <path d="M18828.9,707.337C18828,704.685 18825.3,699.315 18823.9,697.386C18822.6,695.554 18822.6,695.554 18822.6,681.419C18822.6,669.542 18822.4,666.823 18821.9,664.397C18819,652.32 18813.3,644.242 18803.3,637.748C18799.7,635.417 18790.6,630.366 18792.2,631.582C18796.8,635.053 18803.5,640.596 18803.5,640.845C18803.5,642.077 18796.8,643.876 18792.1,643.905C18780.9,643.974 18771.3,637.513 18764.5,625.319C18763.6,623.617 18754.5,603.741 18753,600.242C18752.3,598.398 18752.1,598.412 18756.6,599.932C18761.9,601.757 18767.3,602.709 18775.1,603.211C18790.2,604.191 18796.4,606.569 18803.6,614.192C18809.1,619.993 18814.2,635.787 18809.4,631.908C18804.3,627.852 18796.6,624.415 18785.2,621.037C18781.2,619.858 18777.6,618.758 18777.1,618.591C18773.4,617.217 18789.1,626.464 18799.1,631.509C18811.9,637.968 18816.2,640.686 18821,645.451C18822.9,647.329 18823.6,647.765 18823.6,647.183C18823.6,646.754 18823.9,644.009 18824.2,641.081C18826.5,620.349 18826,610.11 18822.7,604.439C18821.2,602.073 18819,599.429 18818.7,599.843C18815.5,604.871 18806.5,601.169 18804.1,593.794C18803.5,591.88 18802.5,589.228 18801.8,587.901C18800.6,585.487 18800.6,585.487 18802.2,585.756C18803,585.904 18805.1,586.215 18806.8,586.448C18814.7,587.535 18818.1,589.687 18819.8,594.511C18820.3,595.983 18820.2,596.055 18819,595.367C18817.9,594.789 18811.2,592.928 18811,593.144C18810.7,593.397 18817.7,597.888 18818.3,597.888C18819.3,597.888 18822.5,600.137 18824.1,601.95C18825.6,603.683 18825.6,603.683 18825.9,600.888C18827.2,589.678 18825.6,582.483 18820.1,575.161C18817.4,571.561 18817.2,571.419 18816.3,572.211C18809,578.579 18799.8,574.393 18794.5,562.269C18793.4,559.68 18791.6,556.125 18790.5,554.37C18788.4,550.696 18788.4,550.494 18791.1,551.366C18792.2,551.72 18794.8,552.207 18797,552.448C18805.5,553.415 18807.5,553.776 18809.8,554.788C18812.8,556.14 18816.3,559.783 18817.2,562.557C18818,565.205 18818.5,567.737 18818,567.524C18817.8,567.428 18816.4,566.761 18815,566.041C18813.5,565.32 18810.7,564.339 18808.8,563.861C18806.9,563.383 18805,562.806 18804.5,562.58C18801.4,561.006 18811.2,567.303 18817.4,570.827C18820.4,572.541 18824,575.691 18825.3,577.731C18826.2,579.26 18826.2,579.26 18826.5,575.371C18827.5,561.305 18829,548.522 18829.5,550.396C18830.3,553.738 18832,570.03 18832.3,576.29C18832.3,577.808 18832.5,578.914 18832.6,578.746C18832.7,578.578 18833.5,577.558 18834.4,576.478C18836.3,574.046 18838.8,572.244 18845.1,568.615C18850.8,565.311 18855,562.688 18854.6,562.683C18852.3,562.653 18842.7,566.111 18841,567.537C18840.3,568.165 18840.3,568.155 18840.5,567.387C18840.6,566.937 18840.9,565.831 18841,564.931C18842.2,557.771 18847.1,554.407 18858.6,552.896C18862.2,552.421 18866.1,551.763 18867.4,551.434C18870.3,550.661 18870.2,550.474 18867.6,555.158C18866.4,557.38 18864.5,561.192 18863.5,563.629C18859.1,573.792 18851,577.511 18843.2,573.014C18840.6,571.502 18836.5,576.266 18833.8,583.856C18832.2,588.273 18832.2,605.609 18833.8,603.22C18835.3,600.85 18836.8,599.618 18840,597.982C18843.4,596.274 18848.3,592.975 18847.5,592.975C18846.5,592.975 18840.8,594.748 18839.6,595.46C18838.3,596.257 18838.3,596.257 18838.5,595.332C18840.2,589.909 18842.9,588.068 18851.4,586.581C18854.4,586.046 18857.2,585.521 18857.5,585.415C18858.2,585.144 18858.1,585.426 18857,587.375C18856.4,588.316 18855.4,590.744 18854.7,592.771C18851.8,601.084 18845.4,604.413 18840.2,600.321C18839.1,599.447 18838,600.673 18835.7,605.152C18833.2,610.104 18832.6,620.199 18834,635.145C18834.4,638.86 18834.8,643.305 18834.9,645.023C18835.2,648.145 18835.2,648.145 18836.4,646.69C18840,642.665 18846,638.714 18858.6,632.247C18869.2,626.8 18882.5,619.019 18882,618.527C18881.9,618.452 18880.9,618.737 18879.7,619.16C18878.4,619.583 18873.9,621.052 18869.6,622.424C18861.1,625.146 18854.4,628.225 18850.2,631.26C18847.6,633.188 18847.6,633.188 18847.8,630.175C18849.1,613.829 18861.4,604.66 18884,603.208C18891.7,602.709 18896.9,601.788 18902.4,599.948C18904.4,599.268 18906.1,598.766 18906.1,598.833C18906.3,598.951 18899.2,614.704 18895.7,622.203C18887.3,640.061 18871.2,648.238 18856.6,642.011C18854.2,640.974 18854.1,641.093 18861.2,635.661C18867.2,630.984 18867.3,630.624 18861.4,633.96C18840.2,645.984 18834.2,659.295 18836.3,689.392C18836.6,694.714 18836.6,694.714 18835.1,696.966C18833.1,699.804 18831.5,702.99 18830.3,706.313C18829.4,708.905 18829.4,708.905 18828.9,707.337L18828.9,707.337Z" style="fill:rgb(75,92,32);fill-rule:nonzero;"/>
    </g>
    <g id="path13" serif:id="path1" transform="matrix(0.270931,0,0,0.270931,-5068.11,-131.128)">
        <path d="M18736.4,597.539C18732.5,595.495 18732.1,590.029 18735.5,587.138C18740.6,582.856 18747.8,589.167 18744.5,595.025C18742.8,598.019 18739.3,599.105 18736.4,597.539Z" style="fill:rgb(10,99,113);fill-rule:nonzero;"/>
    </g>
    <g id="path14" serif:id="path1" transform="matrix(0.270931,0,0,0.270931,-5068.11,-131.128)">
        <path d="M18916.5,597.604C18911.1,594.785 18912.9,586.378 18919,585.741C18923.7,585.256 18927.3,591.136 18924.6,595.027C18922.6,597.992 18919.3,599.041 18916.5,597.604Z" style="fill:rgb(10,99,113);fill-rule:nonzero;"/>
    </g>
    <g id="path15" serif:id="path1" transform="matrix(0.270931,0,0,0.270931,-5068.11,-131.128)">
        <path d="M18760,573.564C18753.2,571.075 18753.6,561.264 18760.6,559.397C18766.6,557.777 18771.6,564.372 18768.7,570.064C18767.1,573.154 18763.2,574.741 18760,573.564Z" style="fill:rgb(10,99,113);fill-rule:nonzero;"/>
    </g>
    <g id="path16" serif:id="path1" transform="matrix(0.270931,0,0,0.270931,-5068.11,-131.128)">
        <path d="M18893.8,573.508C18886.8,570.874 18887.9,560.528 18895.3,559.177C18898.6,558.585 18902.5,561.238 18903.4,564.727C18904.9,570.221 18899.1,575.496 18893.8,573.508Z" style="fill:rgb(10,99,113);fill-rule:nonzero;"/>
    </g>
    <g id="path17" serif:id="path1" transform="matrix(0.270931,0,0,0.270931,-5068.11,-131.128)">
        <path d="M18822.7,553.336C18812.7,546.962 18812.4,534.402 18821.9,520.384C18823.1,518.539 18825.3,515.14 18826.7,512.831C18829.2,508.633 18829.2,508.633 18830.8,511.193C18831.6,512.602 18833.7,515.873 18835.5,518.462C18843,529.841 18845,536.276 18843.2,543.088C18841.3,550.071 18833.9,556.8 18833,552.334C18832.1,547.647 18829.7,533.051 18829.7,531.834C18829.6,528.675 18826.9,542.18 18825.8,551.592C18825.4,554.717 18825.1,554.852 18822.7,553.336Z" style="fill:rgb(75,92,32);fill-rule:nonzero;"/>
    </g>
    <g id="path18" serif:id="path1" transform="matrix(0.270931,0,0,0.270931,-5068.11,-131.128)">
        <path d="M18826.5,500.402C18820.7,498.123 18819.2,490.429 18823.6,486.246C18828.7,481.461 18836.9,484.76 18837.4,491.778C18837.8,497.597 18831.6,502.471 18826.5,500.402Z" style="fill:rgb(10,99,113);fill-rule:nonzero;"/>
    </g>
</svg>
