<?xml version="1.0" encoding="UTF-8" standalone="no"?><!DOCTYPE svg PUBLIC "-//W3C//DTD SVG 1.1//EN" "http://www.w3.org/Graphics/SVG/1.1/DTD/svg11.dtd"><svg width="100%" height="100%" viewBox="0 0 370 370" version="1.1" xmlns="http://www.w3.org/2000/svg" xmlns:xlink="http://www.w3.org/1999/xlink" xml:space="preserve" xmlns:serif="http://www.serif.com/" style="fill-rule:evenodd;clip-rule:evenodd;stroke-linejoin:round;stroke-miterlimit:2;"><rect id="Artboard2" x="0" y="0" width="369.094" height="369.094" style="fill:none;"/><g><path d="M369.094,73.819c0,-40.742 -33.077,-73.819 -73.818,-73.819l-221.457,0c-40.742,0 -73.819,33.077 -73.819,73.819l-0,221.457c-0,40.741 33.077,73.818 73.819,73.818l221.457,0c40.741,0 73.818,-33.077 73.818,-73.818l0,-221.457Z" style="fill:#767968;"/><path d="M295.951,239.448c-0,31.206 -25.297,56.503 -56.503,56.503l-109.794,-0c-31.206,-0 -56.51,-25.297 -56.51,-56.503l-0,-109.801c-0,-31.207 25.304,-56.503 56.51,-56.503l109.794,-0c31.206,-0 56.503,25.296 56.503,56.503l-0,109.801Zm27.007,-111.039c-0,-45.436 -36.837,-82.272 -82.28,-82.272l-112.262,-0c-45.443,-0 -82.279,36.836 -82.279,82.272l-0,112.276c-0,45.436 36.836,82.273 82.279,82.273l112.262,-0c45.443,-0 82.28,-36.837 82.28,-82.273l-0,-112.276Zm-93.318,54.192c-0,-23.823 -19.388,-43.21 -43.211,-43.21c-23.823,-0 -43.211,19.387 -43.211,43.21c-0,23.823 19.388,43.211 43.211,43.211c23.823,0 43.211,-19.388 43.211,-43.211m24.245,0c-0,37.187 -30.255,67.449 -67.456,67.449c-37.194,0 -67.449,-30.262 -67.449,-67.449c-0,-37.194 30.255,-67.456 67.449,-67.456c37.201,0 67.456,30.262 67.456,67.456m19.996,-71.991c-0,8.871 -7.19,16.061 -16.061,16.061c-8.864,-0 -16.054,-7.19 -16.054,-16.061c-0,-8.871 7.19,-16.054 16.054,-16.054c8.871,-0 16.061,7.183 16.061,16.054" style="fill:#fff;fill-rule:nonzero;"/></g></svg>