<?xml version="1.0" encoding="UTF-8" standalone="no"?><!DOCTYPE svg PUBLIC "-//W3C//DTD SVG 1.1//EN" "http://www.w3.org/Graphics/SVG/1.1/DTD/svg11.dtd"><svg width="100%" height="100%" viewBox="0 0 370 370" version="1.1" xmlns="http://www.w3.org/2000/svg" xmlns:xlink="http://www.w3.org/1999/xlink" xml:space="preserve" xmlns:serif="http://www.serif.com/" style="fill-rule:evenodd;clip-rule:evenodd;stroke-linejoin:round;stroke-miterlimit:2;"><rect id="Artboard4" x="0" y="0" width="369.094" height="369.094" style="fill:none;"/><clipPath id="_clip1"><rect x="0" y="0" width="369.094" height="369.094"/></clipPath><g clip-path="url(#_clip1)"><g><path d="M369.094,73.819c0,-40.742 -33.077,-73.819 -73.818,-73.819l-221.457,0c-40.742,0 -73.819,33.077 -73.819,73.819l-0,221.457c-0,40.741 33.077,73.818 73.819,73.818l221.457,0c40.741,0 73.818,-33.077 73.818,-73.818l0,-221.457Z" style="fill:#767968;"/><path d="M144.126,322.637l57.316,0l0,-91.258c0,-24.063 4.552,-47.365 34.408,-47.365c29.383,0 29.8,27.517 29.8,48.927l-0,89.696l57.308,0l-0,-101.186c-0,-49.688 -10.706,-87.878 -68.767,-87.878c-27.925,0 -46.635,15.289 -54.303,29.808l-0.753,0l-0,-25.232l-55.009,-0l0,184.488Zm-64.688,-276.18c18.366,0 33.246,14.912 33.246,33.238c-0,18.349 -14.88,33.269 -33.246,33.269c-18.413,0 -33.301,-14.92 -33.301,-33.269c-0,-18.326 14.888,-33.238 33.301,-33.238m-28.726,91.692l57.436,-0l0,184.488l-57.436,0l0,-184.488Z" style="fill:#fff;fill-rule:nonzero;"/></g></g></svg>