<?xml version="1.0" encoding="UTF-8" standalone="no"?><!DOCTYPE svg PUBLIC "-//W3C//DTD SVG 1.1//EN" "http://www.w3.org/Graphics/SVG/1.1/DTD/svg11.dtd"><svg width="100%" height="100%" viewBox="0 0 370 370" version="1.1" xmlns="http://www.w3.org/2000/svg" xmlns:xlink="http://www.w3.org/1999/xlink" xml:space="preserve" xmlns:serif="http://www.serif.com/" style="fill-rule:evenodd;clip-rule:evenodd;stroke-linejoin:round;stroke-miterlimit:2;"><rect id="Artboard5" x="0" y="0" width="369.094" height="369.094" style="fill:none;"/><clipPath id="_clip1"><rect x="0" y="0" width="369.094" height="369.094"/></clipPath><g clip-path="url(#_clip1)"><g><path d="M369.094,73.819c0,-40.742 -33.077,-73.819 -73.818,-73.819l-221.457,0c-40.742,0 -73.819,33.077 -73.819,73.819l0,221.457c0,40.741 33.077,73.818 73.819,73.818l221.457,0c40.741,0 73.818,-33.077 73.818,-73.818l0,-221.457Z" style="fill:#767968;"/><path d="M46.137,255.279l-0,-141.598c-0,-2.146 0.382,-4.203 1.082,-6.107l132.193,95.179c3.067,2.208 7.203,2.208 10.271,-0l132.192,-95.179c0.7,1.904 1.083,3.961 1.083,6.107l-0,141.598l-95.31,-69.031l-15.028,10.82l101.624,73.604c-2.639,1.561 -5.717,2.458 -9.003,2.458l-241.388,-0c-3.285,-0 -6.364,-0.897 -9.002,-2.458l101.623,-73.604l-15.027,-10.82l-95.31,69.031Zm261.546,-159.147l-123.136,88.658c0,-0 -92.024,-66.258 -123.137,-88.659c0.799,-0.109 1.615,-0.166 2.443,-0.166l241.388,-0c0.829,-0 1.644,0.057 2.442,0.167Z" style="fill:#fff;"/></g></g></svg>