<?xml version="1.0" encoding="UTF-8" standalone="no"?>
<!DOCTYPE svg PUBLIC "-//W3C//DTD SVG 1.1//EN" "http://www.w3.org/Graphics/SVG/1.1/DTD/svg11.dtd">
<svg width="100%" height="100%" viewBox="0 0 370 370" version="1.1" xmlns="http://www.w3.org/2000/svg" xmlns:xlink="http://www.w3.org/1999/xlink" xml:space="preserve" xmlns:serif="http://www.serif.com/" style="fill-rule:evenodd;clip-rule:evenodd;stroke-linejoin:round;stroke-miterlimit:2;">
    <g transform="matrix(1,0,0,1,-420,0)">
        <rect id="Artboard7" x="420" y="0" width="370" height="370" style="fill:none;"/>
        <clipPath id="_clip1">
            <rect id="Artboard71" serif:id="Artboard7" x="420" y="0" width="370" height="370"/>
        </clipPath>
        <g clip-path="url(#_clip1)">
            <g transform="matrix(3.13267,0,0,3.13267,-3500.72,-2960)">
                <g transform="matrix(1,0,0,1,865.434,0)">
                    <path d="M504.235,968.504C504.235,955.467 493.65,944.882 480.612,944.882L409.746,944.882C396.709,944.882 386.124,955.467 386.124,968.504L386.124,1039.37C386.124,1052.41 396.709,1062.99 409.746,1062.99L480.612,1062.99C493.65,1062.99 504.235,1052.41 504.235,1039.37L504.235,968.504Z" style="fill:rgb(118,121,104);"/>
                </g>
                <g transform="matrix(2.10841,0,0,2.10841,1305,989.276)">
                    <path d="M0,13.352C-0.036,13.473 -0.068,13.575 -0.095,13.677C-1.638,19.723 -1.81,21.066 -3.396,23.873C-4.152,25.207 -5.004,26.473 -5.946,27.683C-6.053,27.82 -6.151,27.997 -6.364,27.954C-6.597,27.904 -6.615,27.695 -6.641,27.509C-6.895,25.671 -7.034,23.829 -6.974,21.975C-6.894,19.558 -6.595,18.728 -3.479,5.63C-3.435,5.43 -3.485,5.264 -3.553,5.083C-4.297,3.073 -4.444,1.032 -3.794,-1.038C-2.384,-5.504 2.682,-5.848 3.567,-2.161C4.112,0.119 2.669,3.103 1.562,7.512C0.644,11.152 4.927,13.739 8.588,11.081C11.964,8.633 13.274,2.762 13.025,-1.398C12.534,-9.694 3.438,-11.487 -2.334,-8.816C-8.95,-5.757 -10.454,2.445 -7.467,6.193C-7.088,6.669 -6.797,6.96 -6.922,7.444C-7.114,8.195 -7.284,8.951 -7.491,9.698C-7.645,10.252 -8.11,10.455 -8.672,10.227C-9.772,9.782 -10.69,9.08 -11.435,8.156C-13.972,5.015 -14.697,-1.199 -11.343,-6.46C-7.627,-12.288 -0.715,-14.645 5.597,-13.929C13.135,-13.073 17.899,-7.922 18.792,-2.08C19.198,0.582 18.905,7.146 15.169,11.785C10.87,17.116 3.903,17.468 0.688,14.197C0.44,13.946 0.241,13.652 0,13.352" style="fill:white;"/>
                </g>
            </g>
        </g>
    </g>
</svg>
