<?xml version="1.0" encoding="UTF-8" standalone="no"?><!DOCTYPE svg PUBLIC "-//W3C//DTD SVG 1.1//EN" "http://www.w3.org/Graphics/SVG/1.1/DTD/svg11.dtd"><svg width="100%" height="100%" viewBox="0 0 370 370" version="1.1" xmlns="http://www.w3.org/2000/svg" xmlns:xlink="http://www.w3.org/1999/xlink" xml:space="preserve" xmlns:serif="http://www.serif.com/" style="fill-rule:evenodd;clip-rule:evenodd;stroke-linejoin:round;stroke-miterlimit:2;"><rect id="Artboard6" x="0" y="0" width="369.094" height="369.094" style="fill:none;"/><clipPath id="_clip1"><rect x="0" y="0" width="369.094" height="369.094"/></clipPath><g clip-path="url(#_clip1)"><g><path d="M369.094,73.819c0,-40.742 -33.077,-73.819 -73.818,-73.819l-221.457,0c-40.742,0 -73.819,33.077 -73.819,73.819l0,221.457c0,40.741 33.077,73.818 73.819,73.818l221.457,0c40.741,0 73.818,-33.077 73.818,-73.818l0,-221.457Z" style="fill:#767968;"/><path d="M185.842,92.464c41.84,2.453 66.348,20.856 68.731,38.046c1.169,11.234 -6.306,19.964 -19.259,19.964c-18.937,0 -20.863,-25.228 -53.459,-25.228c-14.694,-0 -27.105,6.113 -27.105,19.372c0,27.704 104.43,11.612 104.43,72.611c0,35.165 -28.145,58.203 -70.164,58.203c-36.948,0 -74.088,-16.747 -73.902,-45.585c0.064,-8.709 6.555,-16.69 15.192,-16.69c21.762,-0 21.556,32.332 56.213,32.332c24.302,0 32.597,-13.26 32.597,-22.504c-0,-33.381 -105.051,-12.917 -105.051,-75.692c0,-33.973 27.918,-57.397 71.777,-54.829m-131.149,92.19c-0,71.648 58.088,129.744 129.751,129.744c8.317,0 16.434,-0.806 24.315,-2.311c11.405,6.898 24.786,10.871 39.102,10.871c41.819,-0.007 75.721,-33.902 75.721,-75.736c-0,-14.657 -4.18,-28.331 -11.391,-39.936c1.291,-7.353 1.997,-14.914 1.997,-22.632c-0,-71.662 -58.089,-129.751 -129.744,-129.751c-8.16,-0 -16.142,0.792 -23.895,2.232c-11.455,-6.99 -24.922,-10.998 -39.315,-10.998c-41.819,-0 -75.721,33.902 -75.721,75.728c-0,14.579 4.13,28.181 11.269,39.736c-1.348,7.483 -2.089,15.179 -2.089,23.053" style="fill:#fff;fill-rule:nonzero;"/></g></g></svg>