<?xml version="1.0" encoding="UTF-8" standalone="no"?>
<!DOCTYPE svg PUBLIC "-//W3C//DTD SVG 1.1//EN" "http://www.w3.org/Graphics/SVG/1.1/DTD/svg11.dtd">
<svg width="100%" height="100%" viewBox="0 0 72 99" version="1.1" xmlns="http://www.w3.org/2000/svg" xmlns:xlink="http://www.w3.org/1999/xlink" xml:space="preserve" xmlns:serif="http://www.serif.com/" style="fill-rule:evenodd;clip-rule:evenodd;stroke-linejoin:round;stroke-miterlimit:2;">
    <g id="path1" transform="matrix(-0.210435,0,0,0.210435,201.574,-183.096)">
        <path d="M771.718,1316.65C771.668,1242.33 726.821,1169.84 660.412,1136.73C647.132,1130.11 632.047,1124.74 624.414,1123.91C617.318,1123.15 617.579,1122.47 625.98,1119.82C688.727,1100.06 761.831,1146.39 784.001,1219.96C784.99,1223.25 785.951,1226.32 786.138,1226.8C787.158,1229.41 785.251,1213.01 783.41,1203.33C774.957,1158.89 756.611,1128.83 725.319,1108.14C713.756,1100.5 690.809,1093.15 678.497,1093.15C670.684,1093.15 668.219,1092.4 668.817,1090.21C671.732,1079.52 693.865,1042.86 697.503,1042.69C700.511,1042.55 723.366,1064.85 728.08,1072.52C731.155,1077.52 731.258,1077.5 735.144,1071.3C738.756,1065.53 748.282,1055.28 756.543,1048.26C759.328,1045.89 761.733,1043.66 761.887,1043.31C764.819,1036.48 797.776,1085.9 809.061,1114.05C835.625,1180.29 821.359,1274.73 776.114,1332.15C774.227,1334.55 772.47,1336.78 772.208,1337.11C771.947,1337.45 771.726,1328.24 771.718,1316.65Z" style="fill:rgb(115,119,134);fill-rule:nonzero;"/>
    </g>
    <g id="path11" serif:id="path1" transform="matrix(-0.210435,0,0,0.210435,201.574,-183.096)">
        <path d="M841.371,1307.21C841.381,1306.56 842.179,1304.27 843.143,1302.11C880.36,1218.97 857.975,1093.84 793.808,1026.35C786.197,1018.34 785.86,1018.55 802.445,1021C859.75,1029.47 910.149,1103.17 903.281,1168.46C902.469,1176.18 903.3,1174.13 905.749,1162.37C922.046,1084.11 892.593,1021.19 832.499,1005.89C824.328,1003.81 824.609,1004.3 827.514,997.131C832.173,985.639 834.105,981.883 840.136,972.589C849.546,958.086 848.196,959.092 852.916,963.072C861.22,970.075 874.07,983.541 878.102,989.466C883.038,996.718 882.812,996.643 885.503,991.906C890.133,983.754 911.816,961.1 915.923,960.122C916.497,959.986 919.225,962.876 921.986,966.545C924.747,970.215 927.395,973.657 927.871,974.194C983.614,1037.17 959.467,1172.16 874.178,1274.35C861.465,1289.59 841.331,1309.75 841.371,1307.21Z" style="fill:rgb(167,170,188);fill-rule:nonzero;"/>
    </g>
    <g id="path12" serif:id="path1" transform="matrix(-0.210435,0,0,0.210435,201.574,-183.096)">
        <path d="M719.696,1025.31C681.542,1012.72 688.753,954.016 728.77,951.44C772.683,948.613 784.325,1011.96 742.319,1025.16C735.138,1027.42 726.264,1027.47 719.696,1025.31Z" style="fill:rgb(49,61,89);fill-rule:nonzero;"/>
    </g>
    <g id="path13" serif:id="path1" transform="matrix(-0.210435,0,0,0.210435,201.574,-183.096)">
        <path d="M872.256,945.491C850.173,939.977 838.143,913.084 848.288,891.91C865.903,855.142 918.403,867.61 918.419,908.565C918.429,934.429 896.905,951.646 872.256,945.491Z" style="fill:rgb(49,61,89);fill-rule:nonzero;"/>
    </g>
</svg>
