<?xml version="1.0" encoding="UTF-8" standalone="no"?>
<!DOCTYPE svg PUBLIC "-//W3C//DTD SVG 1.1//EN" "http://www.w3.org/Graphics/SVG/1.1/DTD/svg11.dtd">
<svg width="100%" height="100%" viewBox="0 0 134 79" version="1.1" xmlns="http://www.w3.org/2000/svg" xmlns:xlink="http://www.w3.org/1999/xlink" xml:space="preserve" xmlns:serif="http://www.serif.com/" style="fill-rule:evenodd;clip-rule:evenodd;stroke-linejoin:round;stroke-miterlimit:2;">
    <rect id="Artboard1" x="0" y="0" width="133.762" height="78.246" style="fill:none;"/>
    <clipPath id="_clip1">
        <rect id="Artboard11" serif:id="Artboard1" x="0" y="0" width="133.762" height="78.246"/>
    </clipPath>
    <g clip-path="url(#_clip1)">
        <g id="path1" transform="matrix(0.595127,0,0,0.595127,-90.6207,-114)">
            <path d="M271.184,320.555C271.782,319.125 272.271,317.316 272.271,316.535C272.271,315.754 273.172,313.803 274.272,312.199C277.974,306.802 276.363,299.156 271.524,299.156C270.793,299.156 269.631,298.297 268.943,297.247C268.255,296.197 266.854,294.956 265.829,294.489C263.115,293.253 260.038,286.762 260.641,283.545C260.997,281.647 260.799,280.785 259.848,280.089C258.402,279.032 259.491,275.906 261.306,275.906C261.847,275.906 262.863,275.272 263.566,274.496C266.273,271.504 260.794,269.24 257.695,272.07C254.396,275.082 252.677,274.885 253.209,271.557C253.505,269.707 253.371,268.402 252.852,268.081C252.395,267.799 252.016,266.828 252.01,265.925C251.987,262.659 250.969,262.018 247.579,263.137C244.12,264.279 243.322,266.962 246.013,268.402C249.137,270.074 250.766,275.647 248.646,277.406C246.973,278.795 245.271,277.05 245.271,273.946C245.271,272.231 244.789,271.118 243.771,270.482C242.946,269.967 242.271,268.941 242.271,268.202C242.271,266.22 240.071,265.725 237.59,267.15C235.964,268.082 235.044,268.204 233.966,267.627C231.932,266.538 232.171,265.915 234.454,266.351C238.205,267.068 240.803,261.795 238.053,259.045C236.438,257.43 233.823,257.878 232.926,259.923C232.529,260.825 231.558,261.733 230.767,261.94C229.685,262.223 229.42,262.791 229.696,264.236C230.214,266.943 228.366,266.724 227.404,263.964C226.531,261.46 224.099,259.872 222.107,260.504C220.298,261.078 214.564,258.452 212.948,256.309C211.866,254.875 210.683,254.514 205.638,254.081C202.327,253.796 195.969,252.431 191.507,251.047C182.765,248.336 183.423,248.082 201.598,247.164C207.219,246.881 209.096,245.635 205.831,244.356C203.646,243.5 203.646,243.5 207.662,242.448C213.216,240.994 216.569,238.597 214.828,237.324C213.65,236.463 213.661,236.352 214.978,235.749C216.055,235.256 215.402,234.992 212.271,234.652C208.146,234.203 208.146,234.203 212.101,233.581C216.884,232.828 217.67,231.944 214.36,231.039C210.817,230.069 216.099,229.023 220.901,229.743C224.91,230.344 225.383,229.27 221.902,227.47C219.043,225.991 213.957,226.465 209.118,228.661C205.989,230.081 199.544,230.679 198.51,229.645C198.228,229.363 194.881,229.045 191.072,228.938C183.425,228.722 174.816,226.593 171.771,224.165C170.74,223.343 168.884,222.2 167.646,221.626C164.546,220.187 159.021,215.274 159.021,213.957C159.021,213.361 158.262,212.528 157.334,212.104C155.885,211.443 152.271,206.937 152.271,205.792C152.271,204.874 160.067,205.516 162.608,206.643C164.141,207.324 165.971,207.812 166.673,207.727C167.374,207.643 168.827,208.15 169.901,208.854C171.02,209.587 173.69,210.223 176.152,210.343C178.515,210.458 181.956,211.077 183.798,211.719C187.675,213.068 189.771,213.222 189.771,212.156C189.771,211.11 196.757,211.267 202.146,212.433C208.159,213.734 210.731,215.174 215.789,220.074C220.717,224.846 221.697,225.196 230.271,225.245C240.919,225.306 244.799,223.25 235.709,222.365C221.33,220.964 219.95,219.902 230.646,218.471C235.817,217.78 237.019,217.036 234.303,216.21C232.583,215.687 233.512,215.476 238.896,215.168C245.305,214.801 245.643,214.696 245.587,213.094C245.508,210.862 246.307,210.961 247.892,213.38C248.887,214.899 249.33,215.12 249.813,214.339C250.316,213.525 250.539,213.579 250.934,214.611C251.603,216.353 252.771,215.494 252.771,213.26C252.771,212.12 253.603,210.836 255.021,209.788C256.259,208.873 257.282,207.597 257.295,206.953C257.315,205.958 257.469,205.98 258.315,207.094C259.914,209.199 260.271,208.668 260.271,204.19C260.271,199.339 261.718,199.5 263.323,204.529C264.384,207.851 265.173,208.826 265.878,207.685C266.263,207.063 266.724,207.096 267.593,207.808C268.63,208.657 268.723,208.557 268.328,207.022C267.733,204.715 268.377,203.148 269.708,203.659C270.516,203.969 270.771,203.349 270.771,201.079C270.771,195.768 273.107,195.011 274.68,199.812C275.759,203.106 278.072,204.03 277.645,200.997C277.362,198.982 280.438,199.185 282.83,201.34C284.449,202.798 284.834,202.708 286.813,200.407C288.655,198.265 292.14,197.561 293.949,198.965C294.528,199.414 297.228,199.796 299.949,199.813C303.23,199.833 305.753,200.301 307.44,201.199C311.691,203.465 322.715,204.977 323.646,203.423C325.468,200.383 333.955,191.182 334.58,191.568C334.96,191.803 335.271,193.494 335.271,195.326C335.271,199.202 336.153,199.559 338.002,196.43C341.322,190.809 341.509,197.886 338.236,205.286C336.241,209.795 336.246,209.813 340.738,214.841C342.92,217.283 346.029,221.138 347.648,223.407C349.266,225.675 352.153,229.388 354.064,231.657C355.975,233.925 358.796,237.807 360.334,240.282C361.871,242.757 364.877,247.032 367.013,249.782C375.999,261.354 379.006,268.462 375.771,270.482C374.635,271.192 374.271,272.231 374.271,274.771C374.271,282.322 356.438,283.317 356.295,275.773C356.252,273.505 342.965,265.826 330.714,260.989C327.842,259.855 325.147,257.939 322.112,254.872C313.849,246.522 307.091,250.212 293.895,270.282C283.857,285.548 282.006,290.961 283.035,302.035C283.87,311.012 281.162,317.089 274.438,321.334C270.55,323.789 269.899,323.633 271.184,320.556L271.184,320.555ZM277.932,295.672C280.013,293.426 280.348,290.538 278.604,289.869C276.854,289.197 272.485,291.3 271.918,293.088C270.508,297.531 274.585,299.283 277.932,295.672ZM269.757,291.239C271.042,289.954 271.54,288.81 271.268,287.769C271.045,286.914 271.371,285.439 271.993,284.489C273.802,281.728 273.083,277.781 270.771,277.781C269.398,277.781 268.832,278.233 268.657,279.469C268.525,280.397 268.142,281.156 267.805,281.156C266.293,281.156 264.72,284.91 265.568,286.495C266.177,287.632 266.183,288.294 265.591,288.887C264.484,289.993 264.553,292.193 265.709,292.66C267.383,293.335 267.811,293.185 269.757,291.239L269.757,291.239ZM283.521,276.281C284.035,275.663 285.036,275.156 285.747,275.156C287.381,275.156 289.83,272.512 289.175,271.454C287.913,269.411 280.521,273.301 280.521,276.008C280.521,277.689 282.225,277.844 283.521,276.281L283.521,276.281ZM276.584,270.973C276.864,268.814 274.097,265.537 272.955,266.675C272.26,267.368 272.348,268.178 273.346,270.281C274.689,273.111 276.262,273.447 276.584,270.973ZM287.058,267.57C287.518,267.109 288.683,266.341 289.646,265.863C292.378,264.506 292.431,261.656 289.724,261.656C288.54,261.656 287.166,262.061 286.671,262.556C285.971,263.256 285.771,262.85 285.771,260.726C285.771,259.224 285.396,257.763 284.938,257.48C283.625,256.669 282.681,258.785 283.095,261.609C283.303,263.027 283.106,264.63 282.655,265.171C280.91,267.274 285.081,269.546 287.058,267.57L287.058,267.57ZM244.853,258.727C245.084,258.353 245.908,258.213 246.684,258.416C249.253,259.088 251.392,254.299 250.066,250.843C249.445,249.223 248.028,249.354 246.372,251.183C245.613,252.022 244.589,252.555 244.097,252.366C242.767,251.856 241.521,253.447 241.521,255.656C241.521,258.406 243.77,260.478 244.853,258.727ZM257.919,257.365C258.43,256.453 259.655,256.054 262.088,256.009C266.783,255.92 268.068,254.549 265.334,252.544C262.872,250.739 262.748,249.612 264.807,247.749C266.611,246.117 266.509,243.066 264.611,241.878C263.041,240.895 259.159,244.195 257.597,247.841C257.053,249.111 256.082,250.587 255.44,251.12C254.797,251.654 254.271,252.656 254.271,253.348C254.271,254.04 253.881,254.997 253.403,255.475C252.745,256.132 252.768,256.623 253.495,257.5C254.771,259.037 257.022,258.969 257.92,257.365L257.919,257.365ZM225.232,256.969C225.756,255.508 224.363,253.406 222.87,253.406C220.631,253.406 220.469,252.538 222.422,251.002C224.759,249.164 224.82,247.406 222.546,247.406C220.374,247.406 219.021,248.728 219.021,250.85C219.021,251.978 218.433,252.641 217.146,252.964C213.624,253.848 215.78,257.664 219.41,256.97C220.453,256.771 221.488,256.9 221.708,257.257C222.316,258.241 224.851,258.034 225.232,256.969L225.232,256.969ZM277.228,254.59C277.832,253.015 276.178,250.406 274.575,250.406C272.812,250.406 272.042,252.327 273.05,254.211C273.952,255.896 276.633,256.14 277.228,254.59ZM215.994,223.881C214.708,222.681 209.416,221.126 205.146,220.694C203.102,220.487 203.883,220.861 207.595,221.867C210.592,222.68 213.629,223.685 214.345,224.103C216.244,225.209 217.269,225.071 215.994,223.881L215.994,223.881ZM195.521,219.156C195.246,218.881 194.796,218.881 194.521,219.156C194.246,219.431 194.471,219.656 195.021,219.656C195.571,219.656 195.796,219.431 195.521,219.156Z" style="fill:rgb(82,81,80);fill-rule:nonzero;"/>
        </g>
    </g>
</svg>
