<?xml version="1.0" encoding="UTF-8" standalone="no"?>
<!DOCTYPE svg PUBLIC "-//W3C//DTD SVG 1.1//EN" "http://www.w3.org/Graphics/SVG/1.1/DTD/svg11.dtd">
<svg width="100%" height="100%" viewBox="0 0 73 76" version="1.1" xmlns="http://www.w3.org/2000/svg" xmlns:xlink="http://www.w3.org/1999/xlink" xml:space="preserve" xmlns:serif="http://www.serif.com/" style="fill-rule:evenodd;clip-rule:evenodd;stroke-linejoin:round;stroke-miterlimit:2;">
    <g id="path1" transform="matrix(0.171685,0,0,-0.171685,-17.6043,106.053)">
        <path d="M302.889,617.11C301.628,616.375 301.612,614.8 302.826,611.052C307.192,597.579 300.856,576.91 287.411,560.768C272.198,542.504 269.734,540.913 240.542,530.494C179.725,508.789 140.528,459.463 139.243,403.014C138.967,390.914 138.962,390.876 137.312,388.191C130.345,376.855 128.054,347.877 132.904,332.438C133.378,330.927 133.906,326.945 134.077,323.588C135.744,290.747 153.938,261.769 183.189,245.366C188.975,242.122 189.076,242.028 190.279,238.796C192.876,231.819 198.219,223.019 199.86,223.019C202.436,223.019 202.676,225.271 200.478,228.831C198.253,232.435 194.282,240.607 194.6,240.926C194.698,241.024 196.35,240.698 198.27,240.2C200.19,239.703 202.27,239.296 202.892,239.296C203.797,239.296 204.171,238.626 204.759,235.953C216.6,182.134 315.637,157.905 386.738,191.433C413.732,204.162 440.545,234.83 443.125,255.926C443.128,255.96 445.227,257.225 447.785,258.736C492.082,284.893 511.5,345.537 487.731,383.487C485.35,387.289 484.482,389.327 483.908,392.464C481.391,406.226 470.922,419.585 457.486,426.179C435.325,437.056 409.018,433.688 361.938,413.945C342.19,405.664 334.092,401.21 310.427,385.612C288.733,371.315 279.034,365.986 274.84,366.061C272.791,366.098 272.11,365.591 282.688,371.911C290.051,376.311 298.258,381.852 314.079,393.107C329.397,404.004 340.561,410.927 352.913,417.191C360.658,421.119 361.216,421.512 361.052,422.928C360.474,427.908 343.141,418.7 311.643,396.68C283.604,377.079 279.083,374.143 269.382,369.234C263.546,366.281 256.392,363.69 251.877,362.893C249.556,362.483 249.105,362.229 257.574,366.098C267.633,370.692 282.875,380.338 304.487,395.785C346.846,426.062 369.214,436.199 401.278,439.653C410.545,440.651 411.742,441.007 411.742,442.759C411.742,445.172 410.425,445.367 401.376,444.291C366.915,440.194 344.613,429.993 299.546,397.714C265.687,373.463 249.641,365.008 231.619,361.922C218.844,359.735 208.803,361.136 205.722,365.535C204.393,367.432 204.777,367.538 211.282,367.079C240.644,365.005 258.609,372.038 297.802,400.946C366.213,451.405 412.952,460.727 465.805,434.454C469.801,432.468 473.251,430.76 473.471,430.66C474.221,430.319 476.243,432.848 475.911,433.712C474.899,436.352 456.799,443.965 442.646,447.705C393.691,460.641 355.795,449.503 294.816,404.257C271.021,386.601 261.655,380.922 247.739,375.713C241.53,373.389 235.287,372.117 239.088,373.951C252.104,380.231 256.201,382.348 261.548,385.559C268.613,389.803 278.081,396.394 287.578,403.682C333.329,438.789 355.05,449.903 389.651,455.912C413.426,460.04 448.917,453.969 466.331,442.795C473.578,438.144 474.625,443.263 467.754,449.75C444.548,471.661 398.191,476.761 357.388,461.893C334.227,453.454 315.804,442.584 289.082,421.591C249.423,390.436 237.75,383.771 209.15,375.954C205.633,374.992 200.985,373.69 198.821,373.06C196.657,372.429 195.051,372.18 195.252,372.505C195.783,373.364 199.572,374.896 211.116,378.918C235.434,387.391 252.695,397.398 274.549,415.695C323.967,457.07 356.129,472.007 398.953,473.472C410.03,473.851 410.292,473.889 410.469,475.131C411.245,480.58 379.9,478.395 357.846,471.463C330.456,462.853 311.812,451.583 271.847,419.473C244.175,397.24 232.549,390.581 205.99,381.751C190.581,376.629 184.784,371.296 184.784,362.246C184.783,349.503 202.043,340.078 235.31,334.655C280.431,327.299 293.441,323.494 318.439,310.342C338.011,300.045 336.548,300.283 299.546,313.409C277.17,321.346 263.583,324.649 238.507,328.244C209.508,332.403 199.385,335.448 189.443,343.002C179.028,350.917 174.314,363.375 178.574,371.727C181.252,376.976 187.086,380.557 201.012,385.497C234.287,397.301 241.378,401.371 273.968,427.368C305.158,452.248 320.253,461.665 344.269,471.227C381.199,485.93 417.28,485.514 448.656,470.023C456.13,466.332 457.296,466.035 458.169,467.596C461.57,473.673 425.061,485.484 400.696,486.187C357.517,487.435 320.835,471.371 266.992,427.638C248.702,412.782 239.541,406.689 225.533,400.065C217.718,396.369 215.452,395.437 206.244,392.13C178.684,382.233 170.998,375.863 168.737,361.045C164.878,335.751 188.081,319.014 232.773,314.852C247.359,313.494 251.586,312.317 246.807,310.942C208.589,299.947 162.882,324.87 162.944,356.671C162.983,376.631 173.801,387.202 210.022,402.675C236.472,413.973 247.433,420.395 276.003,441.331C339.738,488.037 396.32,503.031 435.407,483.573C439.708,481.432 441.97,481.691 441.97,484.324C441.97,486.303 433.9,489.958 424.185,492.377C378.94,503.645 328.576,487.006 266.992,440.445C248.039,426.116 233.981,418.11 206.244,405.85C172.469,390.922 162.887,382.542 159.204,364.714C151.093,325.445 204.947,292.749 253.186,307.656C256.771,308.764 252.837,305.009 247.984,302.691C206.132,282.7 147.294,319.798 152.988,362.587C156.126,386.167 168.957,399.041 207.406,417.187C233.831,429.658 237.347,431.846 236.127,435.056C232.206,445.368 248.74,457.153 268.831,458.366C277.689,458.901 279.884,460.091 276.935,462.761C275.499,464.06 264.396,463.155 256.174,461.069C242.215,457.528 232.096,448.13 231.044,437.727C230.602,433.356 226.338,429.328 225.492,432.482C223.09,441.438 229.423,455.505 238.97,462.422C245.362,467.053 249.932,468.257 263.504,468.886C296.22,470.401 329.456,498.761 342.87,536.608C344.741,541.885 345.367,541.537 345.421,535.19C345.503,525.579 340.165,513.05 331.669,502.913C327.709,498.187 327.214,496.182 329.804,495.36C333.455,494.201 346.29,514.654 348.907,525.801C353.352,544.736 344.754,569.925 325.631,593.988C320.306,600.689 304.983,617.749 304.316,617.72C304.091,617.711 303.448,617.436 302.889,617.11ZM323.65,584.021C334.007,549.797 311.41,511.517 267.864,489.516C257.708,484.385 242.327,479.438 240.917,480.849C240.431,481.334 241.084,481.664 248.447,484.653C302.306,506.517 330.64,546.583 321.166,587.482C320.465,590.504 319.898,593.12 319.905,593.295C319.94,594.167 322.491,587.849 323.65,584.021ZM317.594,578.582C322.286,542.502 291.21,503.904 244.785,488.15C228.344,482.57 227.581,484.697 243.644,491.332C292.462,511.496 316.283,541.61 315.122,581.696C314.827,591.865 316.071,590.299 317.594,578.582ZM310.547,577.336C310.802,541.721 285.798,512.635 239.088,494.208C223.475,488.048 222.943,487.723 224.494,485.276C224.852,484.711 223.871,483.377 221.075,480.625C208.278,468.031 202.718,448.43 206.901,430.65C207.744,427.064 205.96,430.591 204.157,436.074C198.559,453.098 203.476,472.784 216.599,485.889C221.06,490.345 223.696,491.817 234.497,495.882C280.518,513.205 308.855,545.93 309.47,582.464C309.551,587.286 310.508,582.728 310.547,577.336ZM332.299,573.121C339.224,542.014 317.055,505.86 278.618,485.579C268.562,480.273 255.633,475.906 249.925,475.887C245.572,475.873 244.817,475.438 245.016,473.061C245.186,471.034 245.08,470.906 241.995,469.439C229.006,463.263 220.563,449.694 220.439,434.799C220.385,428.35 219.235,429.155 218.254,436.327C215.961,453.091 227.941,471.908 243.269,475.619C293.963,487.892 332.234,529.83 330.831,571.57C330.614,578.033 331.093,578.539 332.299,573.121ZM300.426,561.247C293.127,535.776 267.194,512.332 232.694,500.017C201.974,489.051 188.542,456.244 203.017,427.535C205.879,421.858 205.879,421.858 204.201,420.663C202.522,419.468 202.522,419.468 200.449,422.539C189.35,438.982 189.634,465.918 201.092,483.64C207.392,493.384 210.164,495.476 221.212,498.825C256.59,509.548 285.526,532.85 298.965,561.437C302.169,568.253 302.424,568.22 300.426,561.247L300.426,561.247ZM340.177,557.978C346.737,526.567 300.296,473.442 266.411,473.595C262.632,473.612 262.632,473.612 267.573,475.549C307.06,491.027 338.495,528.473 338.495,560.033C338.495,562.906 339.371,561.836 340.177,557.978ZM290.778,555.681C276.997,532.669 250.757,512.688 223.488,504.443C215.908,502.151 217.678,503.443 232.008,510.661C258.323,523.918 268.783,531.967 287.867,553.647C292.052,558.401 292.662,558.827 290.778,555.681ZM258.272,531.426C258.272,530.064 236.073,517.284 228.45,514.256C224.03,512.501 208.686,508.797 207.489,509.196C205.221,509.952 226.164,520.286 240.018,525.247C245.422,527.182 251.413,529.403 253.331,530.182C256.784,531.585 258.272,531.959 258.272,531.426ZM209.575,502.49C209.389,501.771 207.429,499.089 205.218,496.532C185.597,473.828 181.898,440.807 196.654,420.085C197.333,419.131 197.735,418.105 197.549,417.803C197.212,417.258 193.625,415.297 193.481,415.58C193.44,415.661 192.729,416.787 191.901,418.082C176.133,442.735 179.601,478.185 199.714,497.957C204.68,502.839 210.338,505.44 209.575,502.49ZM187.44,489.654C174.743,468.83 174.052,442.58 185.61,420.21C189.001,413.648 189.001,413.648 186.706,412.129C183.904,410.274 184.011,410.173 179.863,418.634C167.515,443.823 170.33,474.386 186.583,491.615C191.496,496.824 191.628,496.523 187.44,489.654ZM237.2,479.819C237.067,479.419 235.018,477.731 232.646,476.067C218.357,466.044 209.98,445.281 214.376,430.789C216.142,424.967 214.862,424.768 212.725,430.532C206.938,446.146 212.668,468.958 224.589,477.763C227.864,480.182 237.863,481.812 237.2,479.819L237.2,479.819ZM168.196,463.033C165.86,448.635 169.136,429.378 176.351,415.104C179.711,408.457 179.711,408.457 177.698,406.922C175.346,405.128 175.397,405.09 172.115,411.077C163.245,427.26 161.296,447.801 167.106,463.851C168.629,468.057 168.97,467.801 168.196,463.033ZM420.098,465.148C431.313,463.656 440.19,460.984 450.836,455.899C457.591,452.672 457.982,452.204 452.289,454.157C402.174,471.349 354.744,460.033 298.332,417.425C271.268,396.983 266.25,393.406 256.819,387.832C241.435,378.74 222.614,371.803 213.51,371.869C210.314,371.892 210.315,371.892 217.085,373.869C239.626,380.446 257.633,390.715 284.432,412.274C328.991,448.12 357.524,461.758 396.046,465.622C401.402,466.159 414.429,465.903 420.098,465.148ZM160.792,429.098C162.387,421.929 164.736,415.311 167.988,408.823C171.158,402.499 171.158,402.499 169.247,400.528C167.337,398.558 167.337,398.558 165.975,400.748C157.07,415.071 153.985,433.817 158.152,448.282C159.156,451.77 159.156,451.77 159.522,442.469C159.722,437.353 160.294,431.336 160.792,429.098L160.792,429.098ZM155.036,413.984C155.878,411.426 158.162,406.13 160.112,402.215C163.657,395.097 163.657,395.097 161.531,392.744C159.405,390.39 159.405,390.39 157.904,393.758C152.897,404.987 151.32,411.764 151.37,421.832C151.407,429.098 151.407,429.098 152.456,423.866C153.033,420.989 154.195,416.542 155.036,413.984ZM441.029,426.231C451.842,421.553 460.014,400.739 456.824,386.006C452.262,364.945 426.885,345.981 407.211,348.931C404.1,349.398 404.305,349.607 408.921,350.684C446.039,359.342 461.095,399.265 436.241,423.126C431.35,427.821 431.35,427.821 435.283,427.418C437.446,427.197 440.032,426.663 441.029,426.231ZM425.647,425.242C450.567,414.504 449.865,378.697 424.409,362.099C403.005,348.143 385.542,349.567 358.26,367.492C334.252,383.265 330.562,385.661 327.886,387.209C324.221,389.329 324.187,389.469 326.894,391.26C329.993,393.311 332.559,391.866 350.318,378.078C363.662,367.717 371.769,362.935 380.48,360.285C423.063,347.332 454.287,394.001 422.64,423.3C418.079,427.524 418.988,428.111 425.647,425.242ZM416.01,422.4C444.676,403.227 430.102,362.597 394.54,362.545C380.75,362.525 372.267,366.66 348.332,385.067C342.122,389.843 336.431,394.072 335.685,394.466C334.246,395.227 335.264,397.416 337.056,397.416C338.061,397.416 347.168,390.878 355.508,384.169C371.32,371.449 381.016,366.783 392.906,366.169C422.794,364.627 434.079,398.692 410.76,420.06C406.011,424.411 406.025,424.749 410.966,425.251C411.339,425.289 413.609,424.006 416.01,422.4L416.01,422.4ZM458.342,420.247C463.805,417.095 466.938,411.678 468.96,401.892C474.992,372.688 452.504,343.029 426.183,345.475C422.075,345.857 422.075,345.857 426.566,347.494C458.747,359.227 472.062,394.75 453.829,420.234C450.977,424.222 451.452,424.223 458.342,420.248L458.342,420.247ZM404.101,419.348C432.515,402.295 416.37,362.078 385.001,371.77C375.829,374.604 353.1,389.716 342.898,399.764C342.572,400.085 343.648,400.883 345.631,401.791C349.975,403.78 349.335,404.113 365.817,391.252C380.647,379.679 393.161,374.002 399.879,375.799C416.995,380.376 414.075,405.02 394.887,417.942C392.865,419.304 392.06,420.145 392.598,420.331C397.828,422.14 399.717,421.979 404.101,419.348ZM149.261,402.985C150.096,400.133 151.945,395.455 153.369,392.588C156.541,386.204 156.621,387.353 152.54,380.651C150.66,377.562 148.12,373.073 146.895,370.675C143.968,364.942 143.935,365.243 144.416,393.637C144.845,419.008 145.191,422.019 146.725,413.693C147.284,410.656 148.425,405.837 149.261,402.985ZM389.704,415.337C408.19,406.19 413.039,381.002 396.495,380.068C392.082,379.818 391.574,380.344 394.635,381.993C405.588,387.892 396.738,405.701 379.314,412.822C375.99,414.18 375.99,414.18 377.734,414.889C384.649,417.697 384.914,417.707 389.704,415.337ZM375.686,409.047C392.852,403.934 401.964,384.651 387.267,384.537C382.369,384.499 377.833,387.224 364.236,398.372C360.649,401.314 357.117,404.14 356.388,404.654C352.914,407.101 361.018,407.475 368.258,405.202C372.264,403.944 373.49,403.253 375.479,401.133C378.155,398.28 380.448,397.751 381.513,399.741C382.64,401.848 380.541,404.057 373.81,407.851C368.911,410.612 369.395,410.92 375.686,409.047ZM478.865,393.079C485.07,368.962 461.911,340.463 425.693,327.649C416.138,324.268 404.261,325.554 388.718,331.651C361.364,342.381 354.126,345.302 341.496,350.71C305.357,366.185 295.839,370.819 297.543,372.108C299.3,373.437 300.308,373.211 306.68,370.058C309.95,368.44 314.326,366.368 316.405,365.453C318.483,364.538 322.93,362.572 326.287,361.082C364.391,344.178 387.28,337.845 410.288,337.841C452.158,337.832 475.749,359.444 474.367,396.544C474.064,404.682 474.064,404.682 476.019,400.613C477.094,398.375 478.375,394.985 478.865,393.079ZM322.366,385.422C323.374,384.901 327.089,382.584 330.621,380.274C346.502,369.886 354.163,364.928 357.542,362.853C370.661,354.797 339.882,368.098 321.498,378.43C312.933,383.243 313.311,382.73 316.843,384.755C320.122,386.635 320.039,386.626 322.366,385.422ZM316.721,375.846C347.501,360.13 352.131,358.151 371.63,352.369C386.313,348.016 399.764,345 409.416,343.898C421.617,342.506 419.427,341.257 405.711,341.786C384.752,342.594 348.441,354.48 312.169,372.406C304.875,376.011 304.659,376.236 306.752,378.037C308.881,379.868 308.814,379.883 316.721,375.846ZM486.934,374.308C504.116,339.914 486.821,300.726 450.857,292.563C434.476,288.844 414.381,291.313 409.353,297.662C408.062,299.292 405.682,302.007 404.064,303.696C400.464,307.452 400.631,307.716 405.392,305.801C457.208,284.953 499.889,316.629 483.733,363.942C481.872,369.39 481.895,370.123 484.149,377.506C484.536,378.774 484.928,378.325 486.934,374.308ZM200.433,364.856C202.243,361.286 205.183,359.072 210.419,357.339C214.596,355.956 215.836,354.954 215.836,352.963C215.836,352.295 216.807,349.795 217.994,347.406C219.182,345.017 220.262,342.831 220.394,342.547C221.135,340.967 209.298,344.816 202.239,348.451C188.938,355.299 185.275,364.877 195.068,367.204C198.566,368.035 198.895,367.891 200.433,364.856ZM294.098,366.859C295.336,366.359 297.526,365.411 298.965,364.753C300.404,364.094 304.328,362.387 307.685,360.96C311.042,359.533 316.274,357.232 319.311,355.847C354.425,339.84 399.994,321.844 405.411,321.844C408.631,321.844 405.24,320.728 400.112,320.099C382.67,317.963 362.504,324.934 327.159,345.317C313.275,353.324 302.592,358.817 293.733,362.502C286.268,365.607 286.244,365.627 288.617,366.796C291.008,367.975 291.327,367.979 294.098,366.859L294.098,366.859ZM482.133,350.941C486.527,312.99 449.352,292.078 408.62,309.588C396.43,314.829 396.928,314.414 401.859,315.225C408.486,316.315 409.63,316.199 414.5,313.941C446.398,299.157 480.473,320.212 475.692,351.751C475.006,356.277 475.006,356.277 477.227,359.502C479.773,363.199 480.952,361.142 482.133,350.941ZM276.875,358.719C281.872,356.357 293.309,349.711 292.965,349.367C292.839,349.241 291.194,349.543 289.31,350.039C282.72,351.774 271.802,353.28 255.74,354.67C238.469,356.164 237.067,356.41 242.382,357.011C245.325,357.344 254.811,358.959 264.376,360.756C268.675,361.564 272.002,361.021 276.875,358.719ZM292.1,358.097C300.07,355.222 325.124,342.389 325.124,341.181C325.124,340.529 316.993,341.644 313.131,342.826C308.584,344.217 306.37,345.439 301.965,348.988C300.258,350.363 296.269,353.193 293.1,355.275C285.618,360.194 285.519,360.471 292.1,358.097ZM181.52,344.364C190.819,334.407 205.267,328.492 228.043,325.318C253.16,321.818 276.127,317.245 283.487,314.279C284.167,314.005 286.554,313.221 288.792,312.536C292.409,311.43 303.973,307.388 312.045,304.408C322.663,300.488 332.802,296.98 343.145,293.649C392.107,277.877 410.928,247.745 387.573,222.52C365.076,198.221 323.448,201.587 298.599,229.714C296.768,231.787 294.846,233.483 294.327,233.483C285.872,233.483 303.534,216.358 320.202,208.396C363.833,187.554 410.206,217.516 400.865,260.514C397.017,278.223 380.967,293.018 344.308,312.645C305.348,333.505 289.82,339.295 259.725,344.185C239.361,347.494 235.681,348.155 230.369,349.457C223.232,351.207 221.649,351.842 221.649,352.957C221.649,353.663 222.076,353.799 223.538,353.557C232.579,352.06 240.78,351.186 259.435,349.73C273.14,348.66 282.988,346.936 294.374,343.614C305.159,340.467 308.068,339.01 325.706,327.928C330.236,325.081 337.963,321.23 343.727,318.946C355.23,314.388 380.781,296.493 393.234,284.275C421.688,256.356 413.894,218.434 375.99,200.371C322.645,174.951 247.005,243.689 271.121,295.672C274.246,302.407 278.403,307.72 279.606,306.517C279.774,306.349 278.574,303.516 276.94,300.221C266.205,278.588 269.672,255.254 286.229,237.7C290.072,233.627 293.184,236.32 290.946,241.782C281.315,265.286 281.027,284.221 290.071,299.318C293.604,305.216 294.771,303.809 291.708,297.343C276.385,265.001 298.797,223.971 336.751,214.884C380.339,204.447 409.05,251.687 373.565,275.456C365.237,281.034 363.81,281.64 328.322,294.679C289.849,308.814 259.486,316.699 233.857,319.21C194.159,323.1 175.586,333.738 173.667,353.683C173.347,357.014 173.347,357.014 175.406,352.86C176.676,350.297 179.018,347.042 181.52,344.364ZM147.008,344.079C147.231,312.042 173.79,286.317 211.419,281.693C220.455,280.582 233.287,281.785 239.815,284.353C242.445,285.388 242.458,285.299 240.242,281.425C235.337,272.852 212.083,271.194 192.473,278.02C159.254,289.583 140.268,318.926 146.155,349.602C146.949,353.74 146.941,353.793 147.008,344.079ZM471.419,343.897C469.684,320.72 446.123,307.523 421.692,316.043C413.123,319.031 413.561,319.497 424.588,319.117C446.639,318.357 459.886,325.876 463.44,341.169C465.821,351.414 472.143,353.575 471.419,343.897ZM236.324,343.411C242.161,342.462 252.037,340.867 258.272,339.867C283.895,335.759 299.652,330.533 325.73,317.497C360.127,300.304 379.398,287.254 389.92,274.03C392.786,270.428 392.073,270.536 387.681,274.37C379.1,281.86 372.452,286.026 355.935,294.261C345.516,299.454 343.5,300.577 331.112,308.083C305.065,323.866 284.981,330.981 250.424,336.67C227.876,340.381 226.811,340.713 224.478,344.749C223.947,345.668 223.997,345.794 224.775,345.495C225.29,345.298 230.487,344.36 236.324,343.411ZM143.715,318.937C154.957,285.362 198.877,261.546 231.814,271.165C236.49,272.531 236.418,272.547 235.576,270.333C232.498,262.236 210.89,259.98 191.711,265.753C157.362,276.091 134.149,306.753 139.124,335.214C139.886,339.574 139.886,339.574 140.681,332.598C141.242,327.68 142.137,323.65 143.715,318.937ZM341.444,332.435C352.048,327.092 360.703,323.186 369.736,319.665C375.839,317.287 375.992,316.946 370.897,317.083C359.637,317.388 343.926,322.763 328.468,331.6C320.719,336.03 320.459,336.361 324.688,336.418C326.367,336.44 328.264,336.683 328.903,336.958C330.809,337.777 330.921,337.737 341.444,332.435ZM159.413,323.373C177.689,298.878 215.843,286.904 244.882,296.55C248.622,297.792 248.657,297.749 246.754,294.22C242.483,286.301 219.722,283.35 200.43,288.216C177.322,294.043 156.368,313.279 153.35,331.436C152.968,333.733 152.989,333.716 155.076,330.058C156.237,328.022 158.189,325.014 159.413,323.373ZM370.687,310.141C395.529,297.483 414.043,281.183 418.78,267.798C429.511,237.472 412.343,204.038 381.728,195.639C376.656,194.247 375.011,194.455 378.316,196.071C409.422,211.277 422.898,242.936 409.662,269.713C403.868,281.434 396.032,289.366 375.409,304.383C362.263,313.955 361.59,314.776 370.687,310.141ZM394.551,306.661C400.783,300.695 409.854,290.115 409.253,289.514C409.072,289.333 407.252,290.603 405.208,292.337C399,297.603 384.801,307.622 379.769,310.286C377.153,311.671 377.153,311.671 381.513,312.002C383.911,312.184 386.443,312.38 387.14,312.438C388.029,312.511 390.238,310.79 394.551,306.661ZM265.248,309.386C265.248,309.249 264.238,307.614 263.003,305.753C239.408,270.197 258.852,218.493 305.063,193.908C312.252,190.084 329.792,183.489 332.774,183.489C333.363,183.489 333.844,183.227 333.844,182.907C333.844,180.02 313.525,184.371 302.585,189.601C256.639,211.568 234.034,264.823 256.058,299.218C259.703,304.911 265.248,311.046 265.248,309.386L265.248,309.386ZM272.433,307.165C272.191,306.766 271.017,304.922 269.823,303.068C241.805,259.542 287.72,196.953 353.785,188.616C360.915,187.716 359.713,186.994 350.341,186.548C287.983,183.578 233.598,261.435 267.914,304.549C270.223,307.451 273.894,309.576 272.433,307.165ZM286.757,303.926C286.757,303.663 285.942,301.766 284.945,299.711C280.676,290.907 279.755,286.916 279.387,275.629C279.095,266.676 280.03,258.883 282.392,250.568C282.564,249.964 281.536,251.823 280.108,254.701C272.654,269.721 273.975,289.336 283.287,301.933C284.922,304.145 286.757,305.199 286.757,303.926ZM479.175,301.558C479.175,299.552 467.729,290.094 460.573,286.187C446.869,278.706 421.633,275.292 419.76,280.666C419.427,281.621 418.534,283.625 417.776,285.119C416.031,288.558 416.046,288.764 417.991,288.113C433.466,282.934 460.851,288.204 475.106,299.103C479.397,302.384 479.175,302.25 479.175,301.558L479.175,301.558ZM300.127,299.979C300.127,299.784 299.234,297.233 298.142,294.311C286.157,262.244 316.157,223.653 351.652,225.477C381.143,226.992 387.319,254.822 362.735,275.419C358.578,278.901 358.738,278.913 364.827,275.577C387.347,263.237 391.959,243.376 375.836,228.171C339.426,193.833 272.906,249.354 295.817,294.958C298.018,299.338 300.127,301.796 300.127,299.979ZM305.79,294.231C299.553,276.687 312.516,251.423 333.029,241.145C360.685,227.287 379.489,247.877 359.479,270.106C355.275,274.776 356.592,274.419 363.185,269.102C384.703,251.749 370.38,224.873 342.47,230.232C311.513,236.177 291.056,270.352 303.622,295.131C306.116,300.049 307.634,299.419 305.79,294.231ZM313.498,291.726C313.498,273.233 331.787,249.76 346.195,249.76C351.598,249.76 351.194,254.379 345.757,254.766C333.35,255.649 318.73,274.783 318.73,290.136C318.73,294.877 321.927,294.872 323.327,290.127C327.733,275.207 342.862,259.66 352.992,259.644C354.863,259.641 358.828,261.709 358.837,262.693C358.86,265.265 362.846,258.036 363.31,254.581C364.312,247.112 358.421,241.079 350.098,241.051C327.732,240.976 304.161,269.605 309.642,290.187C311.461,297.015 313.498,297.827 313.498,291.724L313.498,291.726ZM334.214,288.876C335.587,288.223 338.548,285.35 342.174,281.151C345.35,277.474 349.614,272.863 351.65,270.904C355.539,267.163 356.086,265.888 354.229,264.894C349.058,262.127 337.598,271.701 330.933,284.358C327.482,290.909 328.112,291.775 334.214,288.876ZM151.69,285.152C170.958,265.115 203.167,253.795 225.367,259.259C230.39,260.496 230.412,260.464 227.615,256.036C223.629,249.724 208.565,249.005 189.095,254.198C169.682,259.375 159.432,267.5 149.037,285.947C146.622,290.233 146.878,290.157 151.69,285.152ZM466.414,283.219C457.842,272.891 426.013,262.261 423.667,268.943C421.929,273.893 421.292,273.376 429.606,273.763C441.778,274.33 451.628,276.803 461.445,281.756C466.827,284.472 467.656,284.716 466.414,283.219ZM243.744,258.671C247.415,229.936 269.98,200.699 299.837,185.991C303.034,184.416 306.566,182.702 307.685,182.183C309.719,181.238 309.719,181.238 306.522,181.209C281.906,180.989 242.568,222.224 239.982,250.959C239.252,259.057 241.817,274.074 242.705,266.909C242.943,264.99 243.411,261.283 243.744,258.671ZM235.921,244.818C239.382,219.942 244.013,209.143 257.054,195.545C262.173,190.207 262.624,189.383 259.634,190.832C244.445,198.188 231.799,220.768 231.839,240.459C231.86,250.434 234.457,262.401 234.867,254.41C234.957,252.652 235.431,248.335 235.921,244.818ZM228.338,227.669C230.795,217.084 235.807,207.491 242.981,199.645C246.487,195.811 246.094,195.241 242.059,198.31C225.979,210.54 218.369,230.124 224.555,243.357C226.59,247.709 226.59,247.709 226.958,239.869C227.161,235.557 227.782,230.067 228.338,227.669ZM215.129,238.362C216.847,238.018 216.903,237.902 217.284,233.857C218.024,225.999 220.072,218.947 223.217,213.427C225.266,209.83 224.821,209.86 221.588,213.538C215.791,220.133 211.98,227.109 210.345,234.117C209.224,238.925 209.792,239.429 215.129,238.362L215.129,238.362ZM247.854,219.967C255.505,207.464 265.511,196.298 275.057,189.609C281.424,185.147 281.7,183.363 275.543,186.466C263.472,192.551 250.741,207.798 244.9,223.164C243.43,227.034 243.725,226.714 247.854,219.967ZM235.086,604.581C233.311,603.338 233.345,603.228 239.172,591.307C244.462,580.484 245.373,579.235 247.161,580.354C248.931,581.463 248.428,583.207 243.226,593.988C237.842,605.149 237.161,606.035 235.086,604.581ZM387.79,604.895C386.31,604.066 377.704,581.754 378.423,580.606C379.286,579.226 381.892,579.067 382.573,580.353C385.024,584.981 391.321,602.838 390.827,603.761C390.104,605.113 388.95,605.544 387.79,604.895L387.79,604.895ZM400.684,582.713C399.327,580.075 396.289,574.362 393.934,570.016C389.515,561.865 389.023,560.269 390.537,559.012C392.403,557.464 393.743,559.212 400.451,571.951C407.298,584.952 407.571,585.634 406.393,586.811C404.589,588.616 403.213,587.628 400.684,582.713ZM218.858,585.067C217.505,583.714 218.231,582.201 225.493,571.247C232.725,560.337 233.811,559.211 235.484,560.884C236.787,562.187 236.188,563.507 229.707,573.623C221.389,586.608 220.908,587.116 218.858,585.067ZM192.949,579.454C191.628,577.994 191.801,577.676 198.711,568.81C202.034,564.547 208.718,555.892 213.564,549.577C222.514,537.915 223.679,536.871 225.602,538.794C227.047,540.239 226.223,541.477 210.388,561.64C194.043,582.452 194.884,581.593 192.949,579.454ZM368.315,571.696C367.327,570.45 356.516,536.534 356.516,534.683C356.516,533.303 358.333,532.124 359.669,532.637C360.251,532.861 361.756,536.703 363.822,543.244C365.605,548.886 368.282,557.235 369.772,561.798C371.88,568.255 372.341,570.317 371.851,571.099C371.06,572.361 369.103,572.691 368.315,571.696ZM175.259,562.977C173.558,561.276 174.75,559.66 188.484,545.054C200.251,532.542 202.66,530.248 204.035,530.248C207.841,530.248 206.365,533.143 198.068,541.951C193.891,546.385 187.648,553.087 184.196,556.844C178.097,563.481 176.713,564.431 175.259,562.977ZM432.599,550.48C426.401,543.189 420.161,535.786 418.733,534.027C417.305,532.269 415.017,529.559 413.648,528.006C411.089,525.101 410.643,523.732 411.858,522.517C413.506,520.869 414.967,521.809 419.591,527.487C422.129,530.605 427.745,537.309 432.071,542.385C448.464,561.623 447.876,560.842 446.991,562.183C445.153,564.965 444.376,564.333 432.599,550.48ZM383.983,550.406C383.583,550.152 380.944,544.593 378.118,538.054C375.293,531.514 372.655,525.554 372.256,524.809C370.8,522.089 373.447,518.694 375.427,520.742C376.549,521.903 387.326,546.827 387.326,548.262C387.326,550.356 385.624,551.448 383.983,550.406ZM457.376,542.949C435.217,521.93 431.673,517.733 435.314,516.819C436.952,516.408 435.707,515.324 455.486,534.383C465.61,544.138 466.513,545.294 465.107,546.7C463.684,548.123 461.938,547.277 457.376,542.949ZM158.619,545.121C157.083,543.424 157.635,542.793 171.686,530.167C186.144,517.174 185.748,517.474 187.343,518.327C189.614,519.543 188.767,521.398 184.008,525.627C181.53,527.829 176.494,532.393 172.818,535.769C160.193,547.361 160.477,547.174 158.619,545.121ZM120.353,537.468C117.403,535.75 118.051,535.169 132.125,526.913C138.36,523.256 146.992,518.091 151.309,515.437C155.625,512.783 160.334,509.906 161.772,509.044C163.211,508.181 166.203,506.256 168.42,504.765C170.638,503.274 172.756,502.054 173.126,502.054C174.214,502.054 175.895,504.26 175.53,505.21C174.874,506.92 153.005,520.484 124.755,536.702C122.037,538.262 121.79,538.305 120.353,537.468ZM465.534,520.221C446.688,505.423 446.176,504.946 447.06,503.006C448.291,500.305 454.711,504.694 480.193,525.658C482.696,527.717 483.232,529.157 481.966,530.423C480.58,531.808 479.205,530.955 465.534,520.221ZM376.572,510.84C365.82,509.336 351.284,505.462 351.284,504.101C351.284,500.746 352.923,500.466 359.913,502.628C372.857,506.632 393.515,508.424 404.525,506.499C413.472,504.934 413.376,504.459 404.184,504.801C383.79,505.561 362.439,501.269 338.4,491.576C330.16,488.253 329.917,488.076 330.825,486.084C331.687,484.191 332.875,484.228 337.477,486.293C366.586,499.353 403.11,503.908 424.347,497.126C436.797,493.15 432.944,500.692 419.385,506.84C408.894,511.597 392.752,513.105 376.572,510.84L376.572,510.84ZM104.076,494.057C102.94,493.804 102.049,491.194 102.84,490.433C103.12,490.163 110.412,487.393 119.045,484.278C127.678,481.162 135.873,478.198 137.257,477.69C139.714,476.788 139.798,476.798 140.861,478.103C142.886,480.591 142.467,480.865 129.218,485.706C106.742,493.919 105.425,494.356 104.076,494.057ZM521.612,477.304C520.493,476.811 516.046,475.104 511.729,473.511C491.641,466.097 486.151,463.66 486.151,462.159C486.151,459.174 488.097,459.275 496.921,462.722C504.822,465.807 519.599,471.408 524.165,473.048C526.917,474.036 527.985,475.455 527.073,476.912C526.231,478.257 524.118,478.409 521.612,477.304Z" style="fill:rgb(169,172,153);fill-rule:nonzero;"/>
    </g>
</svg>
