<?xml version="1.0" encoding="UTF-8" standalone="no"?><!DOCTYPE svg PUBLIC "-//W3C//DTD SVG 1.1//EN" "http://www.w3.org/Graphics/SVG/1.1/DTD/svg11.dtd"><svg width="100%" height="100%" viewBox="0 0 370 370" version="1.1" xmlns="http://www.w3.org/2000/svg" xmlns:xlink="http://www.w3.org/1999/xlink" xml:space="preserve" xmlns:serif="http://www.serif.com/" style="fill-rule:evenodd;clip-rule:evenodd;stroke-linejoin:round;stroke-miterlimit:2;"><rect id="Artboard3" x="0" y="0" width="369.094" height="369.094" style="fill:none;"/><clipPath id="_clip1"><rect x="0" y="0" width="369.094" height="369.094"/></clipPath><g clip-path="url(#_clip1)"><g><path d="M369.094,73.819c0,-40.742 -33.077,-73.819 -73.818,-73.819l-221.457,0c-40.742,0 -73.819,33.077 -73.819,73.819l-0,221.457c-0,40.741 33.077,73.818 73.819,73.818l221.457,0c40.741,0 73.818,-33.077 73.818,-73.818l0,-221.457Z" style="fill:#767968;"/><path d="M236.758,201.876c-5.628,-3.37 -12.951,-7.122 -19.585,-4.405c-5.081,2.077 -8.329,10.033 -11.628,14.108c-1.689,2.084 -3.702,2.415 -6.31,1.365c-19.089,-7.611 -33.715,-20.353 -44.251,-37.911c-1.789,-2.731 -1.466,-4.887 0.683,-7.417c3.184,-3.744 7.18,-7.999 8.042,-13.051c0.863,-5.053 -1.509,-10.953 -3.593,-15.445c-2.667,-5.75 -5.649,-13.95 -11.406,-17.199c-5.297,-2.989 -12.261,-1.315 -16.976,2.53c-8.135,6.619 -12.066,17.005 -11.944,27.289c0.028,2.932 0.388,5.843 1.078,8.66c1.638,6.799 4.772,13.131 8.308,19.161c2.659,4.535 5.555,8.955 8.667,13.188c10.22,13.871 22.927,25.931 37.639,34.943c7.345,4.499 15.265,8.452 23.458,11.161c9.199,3.026 17.385,6.196 27.318,4.305c10.392,-1.969 20.641,-8.408 24.766,-18.42c1.222,-2.961 1.833,-6.267 1.157,-9.4c-1.416,-6.476 -10.184,-10.328 -15.423,-13.462m-50.863,91.867c-19.822,-0 -39.392,-5.419 -56.605,-15.675l-4.686,-2.789l-41.576,11.133l11.082,-41.332l-2.882,-4.729c-10.601,-17.422 -16.214,-37.301 -16.214,-57.489c0,-61.147 49.741,-110.874 110.881,-110.874c61.139,0 110.888,49.727 110.888,110.874c-0,61.14 -49.749,110.881 -110.888,110.881m-0,-247.606c-75.384,-0 -136.725,61.333 -136.725,136.725c-0,23.056 5.915,45.781 17.148,66.055l-19.843,74.041l74.428,-19.937c20.009,10.86 42.36,16.573 64.992,16.573c75.391,0 136.725,-61.334 136.725,-136.732c-0,-75.392 -61.334,-136.725 -136.725,-136.725" style="fill:#fff;fill-rule:nonzero;"/></g></g></svg>