<?xml version="1.0" encoding="UTF-8" standalone="no"?><!DOCTYPE svg PUBLIC "-//W3C//DTD SVG 1.1//EN" "http://www.w3.org/Graphics/SVG/1.1/DTD/svg11.dtd"><svg width="100%" height="100%" viewBox="0 0 370 370" version="1.1" xmlns="http://www.w3.org/2000/svg" xmlns:xlink="http://www.w3.org/1999/xlink" xml:space="preserve" xmlns:serif="http://www.serif.com/" style="fill-rule:evenodd;clip-rule:evenodd;stroke-linejoin:round;stroke-miterlimit:2;"><rect id="Artboard7" x="0" y="0" width="369.094" height="369.094" style="fill:none;"/><g><path d="M369.094,73.819c0,-40.742 -33.077,-73.819 -73.818,-73.819l-221.457,0c-40.742,0 -73.819,33.077 -73.819,73.819l-0,221.457c-0,40.741 33.077,73.818 73.819,73.818l221.457,0c40.741,0 73.818,-33.077 73.818,-73.818l0,-221.457Z" style="fill:#767968;"/><path d="M237.3,186.342l-69.664,34.334c-2.724,1.479 -12.233,-0.491 -12.233,-3.596l0,-70.473c0,-3.132 9.585,-5.096 12.309,-3.547l66.566,36.138c2.78,1.591 5.836,5.615 3.022,7.144m85.658,-35.973c-0,-33.421 -27.101,-60.521 -60.529,-60.521l-155.771,-0c-33.421,-0 -60.521,27.1 -60.521,60.521l-0,68.356c-0,33.421 27.1,60.522 60.521,60.522l155.771,-0c33.428,-0 60.529,-27.101 60.529,-60.522l-0,-68.356Z" style="fill:#fff;fill-rule:nonzero;"/></g></svg>